<?xml version="1.0" encoding="UTF-8" standalone="no"?>
<!DOCTYPE svg PUBLIC "-//W3C//DTD SVG 1.1//EN"
 "http://www.w3.org/Graphics/SVG/1.1/DTD/svg11.dtd">
<!-- Generated by graphviz version 2.43.0 (0)
 -->
<!-- Title: pastafarianism Pages: 1 -->
<svg width="1014pt" height="260pt"
 viewBox="0.00 0.00 1013.84 260.00" xmlns="http://www.w3.org/2000/svg" xmlns:xlink="http://www.w3.org/1999/xlink">
<g id="graph0" class="graph" transform="scale(1 1) rotate(0) translate(4 256)">
<title>pastafarianism</title>
<polygon fill="white" stroke="transparent" points="-4,4 -4,-256 1009.84,-256 1009.84,4 -4,4"/>
<!-- Missao Precision Landing -->
<g id="node1" class="node">
<title>Missao Precision Landing</title>
<polygon fill="orange" stroke="black" points="524.54,-252 377.54,-252 377.54,-216 524.54,-216 524.54,-252"/>
<text text-anchor="middle" x="451.04" y="-231.8" font-family="Times,serif" font-size="9.00">Ⓜ Missao Precision Landing</text>
</g>
<!-- iniciar voo -->
<g id="node2" class="node">
<title>iniciar voo</title>
<polygon fill="orange" stroke="black" points="213.54,-180 136.54,-180 136.54,-144 213.54,-144 213.54,-180"/>
<text text-anchor="middle" x="175.04" y="-159.8" font-family="Times,serif" font-size="9.00">Ⓜ iniciar voo</text>
</g>
<!-- Missao Precision Landing&#45;&gt;iniciar voo -->
<g id="edge1" class="edge">
<title>Missao Precision Landing&#45;&gt;iniciar voo</title>
<path fill="none" stroke="black" d="M383.88,-215.97C334.33,-203.4 268.07,-186.59 223.59,-175.31"/>
<polygon fill="black" stroke="black" points="224.45,-171.92 213.89,-172.85 222.73,-178.7 224.45,-171.92"/>
</g>
<!-- Busca Local Seguro -->
<g id="node8" class="node">
<title>Busca Local Seguro</title>
<polygon fill="orange" stroke="black" points="511.04,-180 391.04,-180 391.04,-144 511.04,-144 511.04,-180"/>
<text text-anchor="middle" x="451.04" y="-159.8" font-family="Times,serif" font-size="9.00">Ⓜ Busca Local Seguro</text>
</g>
<!-- Missao Precision Landing&#45;&gt;Busca Local Seguro -->
<g id="edge7" class="edge">
<title>Missao Precision Landing&#45;&gt;Busca Local Seguro</title>
<path fill="none" stroke="black" d="M451.04,-215.7C451.04,-207.98 451.04,-198.71 451.04,-190.11"/>
<polygon fill="black" stroke="black" points="454.54,-190.1 451.04,-180.1 447.54,-190.1 454.54,-190.1"/>
</g>
<!-- Pouso Final -->
<g id="node12" class="node">
<title>Pouso Final</title>
<polygon fill="orange" stroke="black" points="855.04,-180 773.04,-180 773.04,-144 855.04,-144 855.04,-180"/>
<text text-anchor="middle" x="814.04" y="-159.8" font-family="Times,serif" font-size="9.00">Ⓜ Pouso Final</text>
</g>
<!-- Missao Precision Landing&#45;&gt;Pouso Final -->
<g id="edge11" class="edge">
<title>Missao Precision Landing&#45;&gt;Pouso Final</title>
<path fill="none" stroke="black" d="M524.94,-218.75C595.83,-205.08 700.99,-184.8 763.02,-172.84"/>
<polygon fill="black" stroke="black" points="763.81,-176.25 772.97,-170.92 762.48,-169.38 763.81,-176.25"/>
</g>
<!-- Condicoes_seguras -->
<g id="node3" class="node">
<title>Condicoes_seguras</title>
<ellipse fill="gray" stroke="black" cx="60.04" cy="-90" rx="60.09" ry="18"/>
<text text-anchor="middle" x="60.04" y="-87.8" font-family="Times,serif" font-size="9.00">Condicoes_seguras</text>
</g>
<!-- iniciar voo&#45;&gt;Condicoes_seguras -->
<g id="edge2" class="edge">
<title>iniciar voo&#45;&gt;Condicoes_seguras</title>
<path fill="none" stroke="black" d="M146.91,-143.88C131.09,-134.25 111.21,-122.15 94.47,-111.95"/>
<polygon fill="black" stroke="black" points="95.89,-108.72 85.53,-106.51 92.25,-114.7 95.89,-108.72"/>
</g>
<!-- Armagem -->
<g id="node4" class="node">
<title>Armagem</title>
<polygon fill="orange" stroke="black" points="211.54,-108 138.54,-108 138.54,-72 211.54,-72 211.54,-108"/>
<text text-anchor="middle" x="175.04" y="-87.8" font-family="Times,serif" font-size="9.00">Ⓜ Armagem</text>
</g>
<!-- iniciar voo&#45;&gt;Armagem -->
<g id="edge3" class="edge">
<title>iniciar voo&#45;&gt;Armagem</title>
<path fill="none" stroke="black" d="M175.04,-143.7C175.04,-135.98 175.04,-126.71 175.04,-118.11"/>
<polygon fill="black" stroke="black" points="178.54,-118.1 175.04,-108.1 171.54,-118.1 178.54,-118.1"/>
</g>
<!-- Arm -->
<g id="node5" class="node">
<title>Arm</title>
<ellipse fill="gray" stroke="black" cx="82.04" cy="-18" rx="27" ry="18"/>
<text text-anchor="middle" x="82.04" y="-15.8" font-family="Times,serif" font-size="9.00">Arm</text>
</g>
<!-- Armagem&#45;&gt;Arm -->
<g id="edge4" class="edge">
<title>Armagem&#45;&gt;Arm</title>
<path fill="none" stroke="black" d="M152.06,-71.7C138.51,-61.5 121.36,-48.59 107.43,-38.1"/>
<polygon fill="black" stroke="black" points="109.32,-35.15 99.22,-31.93 105.11,-40.74 109.32,-35.15"/>
</g>
<!-- OffboardMode -->
<g id="node6" class="node">
<title>OffboardMode</title>
<ellipse fill="gray" stroke="black" cx="175.04" cy="-18" rx="47.84" ry="18"/>
<text text-anchor="middle" x="175.04" y="-15.8" font-family="Times,serif" font-size="9.00">OffboardMode</text>
</g>
<!-- Armagem&#45;&gt;OffboardMode -->
<g id="edge5" class="edge">
<title>Armagem&#45;&gt;OffboardMode</title>
<path fill="none" stroke="black" d="M175.04,-71.7C175.04,-63.98 175.04,-54.71 175.04,-46.11"/>
<polygon fill="black" stroke="black" points="178.54,-46.1 175.04,-36.1 171.54,-46.1 178.54,-46.1"/>
</g>
<!-- TakeoffSetpoint -->
<g id="node7" class="node">
<title>TakeoffSetpoint</title>
<ellipse fill="gray" stroke="black" cx="292.04" cy="-18" rx="51.27" ry="18"/>
<text text-anchor="middle" x="292.04" y="-15.8" font-family="Times,serif" font-size="9.00">TakeoffSetpoint</text>
</g>
<!-- Armagem&#45;&gt;TakeoffSetpoint -->
<g id="edge6" class="edge">
<title>Armagem&#45;&gt;TakeoffSetpoint</title>
<path fill="none" stroke="black" d="M203.67,-71.88C220.26,-61.95 241.23,-49.4 258.58,-39.02"/>
<polygon fill="black" stroke="black" points="260.5,-41.95 267.29,-33.81 256.91,-35.94 260.5,-41.95"/>
</g>
<!-- Achar Local Seguro -->
<g id="node9" class="node">
<title>Achar Local Seguro</title>
<ellipse fill="gray" stroke="black" cx="292.04" cy="-90" rx="62.21" ry="18"/>
<text text-anchor="middle" x="292.04" y="-87.8" font-family="Times,serif" font-size="9.00">Achar Local Seguro</text>
</g>
<!-- Busca Local Seguro&#45;&gt;Achar Local Seguro -->
<g id="edge8" class="edge">
<title>Busca Local Seguro&#45;&gt;Achar Local Seguro</title>
<path fill="none" stroke="black" d="M412.15,-143.88C388.45,-133.44 358.17,-120.11 333.94,-109.45"/>
<polygon fill="black" stroke="black" points="335.21,-106.18 324.64,-105.35 332.39,-112.58 335.21,-106.18"/>
</g>
<!-- Converter Imagem&#45;&gt;NED -->
<g id="node10" class="node">
<title>Converter Imagem&#45;&gt;NED</title>
<ellipse fill="gray" stroke="black" cx="451.04" cy="-90" rx="78.54" ry="18"/>
<text text-anchor="middle" x="451.04" y="-87.8" font-family="Times,serif" font-size="9.00">Converter Imagem&#45;&gt;NED</text>
</g>
<!-- Busca Local Seguro&#45;&gt;Converter Imagem&#45;&gt;NED -->
<g id="edge9" class="edge">
<title>Busca Local Seguro&#45;&gt;Converter Imagem&#45;&gt;NED</title>
<path fill="none" stroke="black" d="M451.04,-143.7C451.04,-135.98 451.04,-126.71 451.04,-118.11"/>
<polygon fill="black" stroke="black" points="454.54,-118.1 451.04,-108.1 447.54,-118.1 454.54,-118.1"/>
</g>
<!-- Aproximar Local Seguro -->
<g id="node11" class="node">
<title>Aproximar Local Seguro</title>
<ellipse fill="gray" stroke="black" cx="622.04" cy="-90" rx="74.46" ry="18"/>
<text text-anchor="middle" x="622.04" y="-87.8" font-family="Times,serif" font-size="9.00">Aproximar Local Seguro</text>
</g>
<!-- Busca Local Seguro&#45;&gt;Aproximar Local Seguro -->
<g id="edge10" class="edge">
<title>Busca Local Seguro&#45;&gt;Aproximar Local Seguro</title>
<path fill="none" stroke="black" d="M492.88,-143.88C518.24,-133.49 550.61,-120.24 576.6,-109.6"/>
<polygon fill="black" stroke="black" points="577.93,-112.84 585.86,-105.81 575.28,-106.36 577.93,-112.84"/>
</g>
<!-- Iniciar Pouso -->
<g id="node13" class="node">
<title>Iniciar Pouso</title>
<ellipse fill="gray" stroke="black" cx="759.04" cy="-90" rx="44.41" ry="18"/>
<text text-anchor="middle" x="759.04" y="-87.8" font-family="Times,serif" font-size="9.00">Iniciar Pouso</text>
</g>
<!-- Pouso Final&#45;&gt;Iniciar Pouso -->
<g id="edge12" class="edge">
<title>Pouso Final&#45;&gt;Iniciar Pouso</title>
<path fill="none" stroke="black" d="M800.45,-143.7C793.82,-135.27 785.74,-124.97 778.48,-115.73"/>
<polygon fill="black" stroke="black" points="781.04,-113.32 772.1,-107.62 775.53,-117.65 781.04,-113.32"/>
</g>
<!-- Está no Chão? -->
<g id="node14" class="node">
<title>Está no Chão?</title>
<ellipse fill="gray" stroke="black" cx="869.04" cy="-90" rx="47.19" ry="18"/>
<text text-anchor="middle" x="869.04" y="-87.8" font-family="Times,serif" font-size="9.00">Está no Chão?</text>
</g>
<!-- Pouso Final&#45;&gt;Está no Chão? -->
<g id="edge13" class="edge">
<title>Pouso Final&#45;&gt;Está no Chão?</title>
<path fill="none" stroke="black" d="M827.64,-143.7C834.26,-135.27 842.35,-124.97 849.61,-115.73"/>
<polygon fill="black" stroke="black" points="852.56,-117.65 855.98,-107.62 847.05,-113.32 852.56,-117.65"/>
</g>
<!-- Desarmar -->
<g id="node15" class="node">
<title>Desarmar</title>
<ellipse fill="gray" stroke="black" cx="970.04" cy="-90" rx="35.59" ry="18"/>
<text text-anchor="middle" x="970.04" y="-87.8" font-family="Times,serif" font-size="9.00">Desarmar</text>
</g>
<!-- Pouso Final&#45;&gt;Desarmar -->
<g id="edge14" class="edge">
<title>Pouso Final&#45;&gt;Desarmar</title>
<path fill="none" stroke="black" d="M852.21,-143.88C877.37,-132.58 910.1,-117.9 934.67,-106.87"/>
<polygon fill="black" stroke="black" points="936.3,-109.98 943.99,-102.69 933.43,-103.59 936.3,-109.98"/>
</g>
</g>
</svg>
